HIERARCHY
ROOT hip
{
  OFFSET -37.7743 85.2796 -21.0587
  CHANNELS 6 Xposition Yposition Zposition Zrotation Xrotation Yrotation
  JOINT abdomen
  {
    OFFSET 0 20.6881 -0.73152
    CHANNELS 3 Zrotation Xrotation Yrotation
    JOINT chest
    {
      OFFSET 0 11.7043 -0.48768
      CHANNELS 3 Zrotation Xrotation Yrotation
      JOINT neck
      {
        OFFSET 0 22.1894 -2.19456
        CHANNELS 3 Zrotation Xrotation Yrotation
        JOINT head
        {
          OFFSET -0.24384 7.07133 1.2192
          CHANNELS 3 Zrotation Xrotation Yrotation
          JOINT leftEye
          {
            OFFSET 4.14528 8.04674 8.04672
            CHANNELS 3 Zrotation Xrotation Yrotation
            End Site
            {
              OFFSET 1 0 0
            }
          }
          JOINT rightEye
          {
            OFFSET -3.6576 8.04674 8.04672
            CHANNELS 3 Zrotation Xrotation Yrotation
            End Site
            {
              OFFSET 1 0 0
            }
          }
        }
      }
      JOINT rCollar
      {
        OFFSET -2.68224 19.2634 -4.8768
        CHANNELS 3 Zrotation Xrotation Yrotation
        JOINT rShldr
        {
          OFFSET -8.77824 -1.95073 1.46304
          CHANNELS 3 Zrotation Xrotation Yrotation
          JOINT rForeArm
          {
            OFFSET -28.1742 -1.7115 0.48768
            CHANNELS 3 Zrotation Xrotation Yrotation
            JOINT rHand
            {
              OFFSET -22.5879 0.773209 7.07136
              CHANNELS 3 Zrotation Xrotation Yrotation
              JOINT rThumb1
              {
                OFFSET -1.2192 -0.487915 3.41376
                CHANNELS 3 Zrotation Xrotation Yrotation
                JOINT rThumb2
                {
                  OFFSET -3.37035 -0.52449 3.41376
                  CHANNELS 3 Zrotation Xrotation Yrotation
                  End Site
                  {
                    OFFSET -1.78271 -1.18214 1.43049
                  }
                }
              }
              JOINT rIndex1
              {
                OFFSET -7.75947 0.938293 5.60832
                CHANNELS 3 Zrotation Xrotation Yrotation
                JOINT rIndex2
                {
                  OFFSET -2.54057 -0.884171 1.56538
                  CHANNELS 3 Zrotation Xrotation Yrotation
                  End Site
                  {
                    OFFSET -1.62519 -0.234802 1.16502
                  }
                }
              }
              JOINT rMid1
              {
                OFFSET -8.24714 1.18213 3.41376
                CHANNELS 3 Zrotation Xrotation Yrotation
                JOINT rMid2
                {
                  OFFSET -3.10165 -0.590103 1.0647
                  CHANNELS 3 Zrotation Xrotation Yrotation
                  End Site
                  {
                    OFFSET -2.48547 -0.328903 0.83742
                  }
                }
              }
              JOINT rRing1
              {
                OFFSET -8.82822 0.546677 1.51678
                CHANNELS 3 Zrotation Xrotation Yrotation
                JOINT rRing2
                {
                  OFFSET -2.60934 -0.819778 -0.0198488
                  CHANNELS 3 Zrotation Xrotation Yrotation
                  End Site
                  {
                    OFFSET -2.33842 -0.294052 0.168128
                  }
                }
              }
              JOINT rPinky1
              {
                OFFSET -8.27202 -0.0477905 -0.4584
                CHANNELS 3 Zrotation Xrotation Yrotation
                JOINT rPinky2
                {
                  OFFSET -1.82734 -0.647385 -0.700984
                  CHANNELS 3 Zrotation Xrotation Yrotation
                  End Site
                  {
                    OFFSET -1.69225 -0.51767 -0.607171
                  }
                }
              }
            }
          }
        }
      }
      JOINT lCollar
      {
        OFFSET 2.68224 19.2634 -4.8768
        CHANNELS 3 Zrotation Xrotation Yrotation
        JOINT lShldr
        {
          OFFSET 8.77824 -1.95073 1.46304
          CHANNELS 3 Zrotation Xrotation Yrotation
          JOINT lForeArm
          {
            OFFSET 28.1742 -1.7115 0.48768
            CHANNELS 3 Zrotation Xrotation Yrotation
            JOINT lHand
            {
              OFFSET 22.5879 0.773209 7.07136
              CHANNELS 3 Zrotation Xrotation Yrotation
              JOINT lThumb1
              {
                OFFSET 1.2192 -0.487915 3.41376
                CHANNELS 3 Zrotation Xrotation Yrotation
                JOINT lThumb2
                {
                  OFFSET 3.37035 -0.52449 3.41376
                  CHANNELS 3 Zrotation Xrotation Yrotation
                  End Site
                  {
                    OFFSET 1.78271 -1.18214 1.43049
                  }
                }
              }
              JOINT lIndex1
              {
                OFFSET 7.75947 0.938293 5.60832
                CHANNELS 3 Zrotation Xrotation Yrotation
                JOINT lIndex2
                {
                  OFFSET 2.54057 -0.884171 1.56538
                  CHANNELS 3 Zrotation Xrotation Yrotation
                  End Site
                  {
                    OFFSET 1.62519 -0.234802 1.16502
                  }
                }
              }
              JOINT lMid1
              {
                OFFSET 8.24714 1.18213 3.41376
                CHANNELS 3 Zrotation Xrotation Yrotation
                JOINT lMid2
                {
                  OFFSET 3.10165 -0.590103 1.0647
                  CHANNELS 3 Zrotation Xrotation Yrotation
                  End Site
                  {
                    OFFSET 2.48547 -0.328903 0.83742
                  }
                }
              }
              JOINT lRing1
              {
                OFFSET 8.82822 0.546677 1.51678
                CHANNELS 3 Zrotation Xrotation Yrotation
                JOINT lRing2
                {
                  OFFSET 2.60934 -0.819778 -0.0198488
                  CHANNELS 3 Zrotation Xrotation Yrotation
                  End Site
                  {
                    OFFSET 2.33842 -0.294052 0.168128
                  }
                }
              }
              JOINT lPinky1
              {
                OFFSET 8.27202 -0.0477905 -0.4584
                CHANNELS 3 Zrotation Xrotation Yrotation
                JOINT lPinky2
                {
                  OFFSET 1.82734 -0.647385 -0.700984
                  CHANNELS 3 Zrotation Xrotation Yrotation
                  End Site
                  {
                    OFFSET 1.69225 -0.51767 -0.607171
                  }
                }
              }
            }
          }
        }
      }
    }
  }
  JOINT rButtock
  {
    OFFSET -8.77824 4.35084 1.2192
    CHANNELS 3 Zrotation Xrotation Yrotation
    JOINT rThigh
    {
      OFFSET 0 -1.70687 -2.19456
      CHANNELS 3 Zrotation Xrotation Yrotation
      JOINT rShin
      {
        OFFSET 0 -36.8199 0.73152
        CHANNELS 3 Zrotation Xrotation Yrotation
        JOINT rFoot
        {
          OFFSET 0.73152 -45.1104 -5.12064
          CHANNELS 3 Zrotation Xrotation Yrotation
          End Site
          {
            OFFSET -1.1221 -3.69964 12.103
          }
        }
      }
    }
  }
  JOINT lButtock
  {
    OFFSET 8.77824 4.35084 1.2192
    CHANNELS 3 Zrotation Xrotation Yrotation
    JOINT lThigh
    {
      OFFSET 0 -1.70687 -2.19456
      CHANNELS 3 Zrotation Xrotation Yrotation
      JOINT lShin
      {
        OFFSET 0 -36.8199 0.73152
        CHANNELS 3 Zrotation Xrotation Yrotation
        JOINT lFoot
        {
          OFFSET -0.73152 -45.1104 -5.12064
          CHANNELS 3 Zrotation Xrotation Yrotation
          End Site
          {
            OFFSET 1.1221 -3.69964 12.103
          }
        }
      }
    }
  }
}
MOTION
Frames:	6
Frame Time:	0.00833333
-41.9249 80.2874 16.4846 14.4212 0.995002 -52.2245 -15.5502 5.40291 -26.7031 5.43872 -1.4685 -7.62089 -1.84004 9.53103 21.4596 -16.443 -9.51551 40.9338 -0 0 0 -0 0 0 1.22357e-013 -1.39917e-013 -5.85141e-014 38.6366 -27.1566 45.2396 -26.5578 -45.105 93.6765 -0.0240399 4.42453 0.623072 -4.37264e-010 -3.00871e-010 2.26896e-009 -7.49051e-010 -5.20949e-010 3.92573e-009 -4.37266e-010 -3.00865e-010 2.26893e-009 7.73091 5.47488 0.417314 -4.37265e-010 -3.0087e-010 2.26895e-009 2.90554 0.965183 0.102902 -4.37258e-010 -3.00871e-010 2.26896e-009 10.2786 0.731801 0.0259123 -4.37271e-010 -3.0087e-010 2.26896e-009 2.22167 -0.733487 -0.20892 1.22325e-013 -1.39972e-013 -5.87719e-014 -19.309 -11.2663 -137.649 18.7207 -11.4831 -35.6579 0.000638292 -0.715512 0.100564 -1.81371e-009 -8.3026e-011 3.42011e-010 -3.13724e-009 -1.48143e-010 5.96584e-010 -1.8137e-009 -8.30234e-011 3.42017e-010 -7.73091 5.47488 -0.417314 -1.8137e-009 -8.30228e-011 3.42002e-010 -2.90554 0.965183 -0.102902 -1.81371e-009 -8.3022e-011 3.42005e-010 -10.2786 0.731801 -0.0259123 -1.8137e-009 -8.30214e-011 3.41997e-010 -2.22167 -0.733487 0.20892 -2.03217e-016 0 -3.88251e-019 16.6388 -40.748 19.1772 -0.338902 39.5522 0.758459 3.18468 -5.96287 16.2307 2.03217e-016 0 3.88251e-019 23.3974 -7.19701 5.11653 -0.122702 23.2724 -1.00917 10.8581 -16.2592 31.7369 
-41.9576 80.3167 16.3694 14.4169 1.00889 -52.1669 -15.5378 5.51217 -26.6971 5.44766 -1.47381 -7.62154 -1.83906 9.49749 21.4638 -16.5472 -9.5132 40.9366 -0 0 0 -0 0 0 1.04382e-013 -1.48372e-013 -1.02722e-013 38.3737 -27.5428 45.0991 -26.5702 -45.0766 93.6182 -0.0207716 4.10519 0.577945 -6.26139e-010 -3.47844e-010 2.53824e-009 -1.07411e-009 -6.02903e-010 4.39146e-009 -6.26133e-010 -3.47843e-010 2.53823e-009 7.73091 5.47488 0.417314 -6.2614e-010 -3.47846e-010 2.53824e-009 2.90554 0.965183 0.102902 -6.26131e-010 -3.47845e-010 2.53825e-009 10.2786 0.731801 0.0259123 -6.26146e-010 -3.47845e-010 2.53825e-009 2.22167 -0.733487 -0.20892 1.04266e-013 -1.48439e-013 -1.03044e-013 -19.4759 -11.3335 -137.786 18.7242 -11.487 -35.6658 0.000533243 -0.655448 0.0921213 -2.36853e-009 9.0492e-011 2.817e-010 -4.09685e-009 1.5138e-010 4.93127e-010 -2.36853e-009 9.04927e-011 2.81708e-010 -7.73091 5.47488 -0.417314 -2.36853e-009 9.04939e-011 2.81691e-010 -2.90554 0.965183 -0.102902 -2.36854e-009 9.04945e-011 2.81694e-010 -10.2786 0.731801 -0.0259123 -2.36852e-009 9.04941e-011 2.81683e-010 -2.22167 -0.733487 0.20892 -2.03217e-016 0 -3.88251e-019 16.6258 -40.6871 19.3345 -0.335571 39.3798 0.754599 3.1493 -5.88283 16.1821 2.03217e-016 0 3.88251e-019 23.4198 -7.31159 5.41116 -0.122403 23.4212 -1.01032 10.7785 -16.2751 31.4682 
-41.9795 80.3765 16.2628 14.4244 1.0132 -52.1213 -15.5286 5.62295 -26.6649 5.44804 -1.47933 -7.61461 -1.80578 9.47803 21.4582 -16.6387 -9.4993 40.9182 -0 0 0 -0 0 0 8.11635e-014 -1.02539e-013 -7.93151e-014 38.1376 -27.8718 44.929 -26.585 -45.0429 93.5487 -0.0174136 3.76465 0.529857 -5.71973e-010 -3.37686e-010 2.2186e-009 -9.80243e-010 -5.8595e-010 3.83856e-009 -5.71964e-010 -3.37687e-010 2.21859e-009 7.73091 5.47488 0.417314 -5.71974e-010 -3.37688e-010 2.2186e-009 2.90554 0.965183 0.102902 -5.71963e-010 -3.37686e-010 2.21861e-009 10.2786 0.731801 0.0259123 -5.71981e-010 -3.37687e-010 2.21861e-009 2.22167 -0.733487 -0.20892 8.10008e-014 -1.02607e-013 -7.9663e-014 -19.6044 -11.3747 -137.915 18.7201 -11.4824 -35.6564 0.000500061 -0.638525 0.0897425 -2.4704e-009 -2.7127e-011 4.73333e-010 -4.27348e-009 -5.24887e-011 8.25643e-010 -2.4704e-009 -2.71281e-011 4.73343e-010 -7.73091 5.47488 -0.417314 -2.47039e-009 -2.71264e-011 4.73324e-010 -2.90554 0.965183 -0.102902 -2.4704e-009 -2.71261e-011 4.73326e-010 -10.2786 0.731801 -0.0259123 -2.47039e-009 -2.7127e-011 4.73314e-010 -2.22167 -0.733487 0.20892 -2.03217e-016 0 -3.88251e-019 16.5931 -40.6304 19.4261 -0.331938 39.1848 0.749739 3.1201 -5.79774 16.1673 2.03217e-016 0 3.88251e-019 23.4779 -7.47562 5.78034 -0.121539 23.5983 -1.00992 10.5772 -16.0663 31.2046 
-42.0133 80.4232 16.1669 14.4433 1.00568 -52.0823 -15.5287 5.73581 -26.5818 5.43017 -1.48893 -7.59305 -1.72256 9.47722 21.4343 -16.71 -9.46717 40.8609 -0 0 0 -0 0 0 4.71893e-014 4.88454e-014 7.29419e-014 37.913 -28.1449 44.6893 -26.6 -45.008 93.4777 -0.0139977 3.39536 0.477743 -6.62704e-011 -2.25176e-010 7.88191e-010 -1.07766e-010 -3.91952e-010 1.36443e-009 -6.62627e-011 -2.25178e-010 7.88175e-010 7.73091 5.47488 0.417314 -6.62717e-011 -2.25178e-010 7.88189e-010 2.90554 0.965183 0.102902 -6.62598e-011 -2.25175e-010 7.88194e-010 10.2786 0.731801 0.0259123 -6.62763e-011 -2.25176e-010 7.882e-010 2.22167 -0.733487 -0.20892 4.70373e-014 4.87941e-014 7.26364e-014 -19.6887 -11.3733 -138.057 18.7099 -11.4708 -35.6331 0.000572729 -0.694714 0.0976402 -1.79032e-009 -7.18931e-010 1.18023e-009 -3.09861e-009 -1.2494e-009 2.05009e-009 -1.79033e-009 -7.18934e-010 1.18024e-009 -7.73091 5.47488 -0.417314 -1.79032e-009 -7.18932e-010 1.18022e-009 -2.90554 0.965183 -0.102902 -1.79033e-009 -7.18932e-010 1.18022e-009 -10.2786 0.731801 -0.0259123 -1.79032e-009 -7.18932e-010 1.18021e-009 -2.22167 -0.733487 0.20892 -2.03217e-016 0 -3.88251e-019 16.5346 -40.5729 19.4274 -0.327903 38.9575 0.743344 3.1025 -5.7104 16.2074 2.03217e-016 0 3.88251e-019 23.5907 -7.71094 6.28558 -0.119874 23.8233 -1.00689 10.1733 -15.467 30.9644 
-42.065 80.4499 16.0333 14.4715 0.989049 -52.0551 -15.535 5.85215 -26.46 5.39973 -1.50143 -7.56042 -1.60522 9.49195 21.3938 -16.7695 -9.41919 40.7694 -0 0 0 -0 0 0 4.35298e-015 2.76669e-013 3.13437e-013 37.7046 -28.3643 44.3909 -26.6156 -44.9712 93.4032 -0.0107558 2.98519 0.419912 7.63722e-010 -3.7261e-011 -1.45751e-009 1.3239e-009 -6.75369e-011 -2.52001e-009 7.63724e-010 -3.72618e-011 -1.45753e-009 7.73091 5.47488 0.417314 7.6372e-010 -3.72607e-011 -1.45751e-009 2.90554 0.965183 0.102902 7.63733e-010 -3.72573e-011 -1.45751e-009 10.2786 0.731801 0.0259123 7.63718e-010 -3.72577e-011 -1.4575e-009 2.22167 -0.733487 -0.20892 4.24486e-015 2.76647e-013 3.13216e-013 -19.733 -11.3299 -138.2 18.6948 -11.4535 -35.5985 0.000739789 -0.792542 0.111391 -5.81414e-010 -1.81037e-009 2.24881e-009 -1.00972e-009 -3.13747e-009 3.90063e-009 -5.81419e-010 -1.81037e-009 2.24882e-009 -7.73091 5.47488 -0.417314 -5.81413e-010 -1.81037e-009 2.2488e-009 -2.90554 0.965183 -0.102902 -5.81423e-010 -1.81037e-009 2.2488e-009 -10.2786 0.731801 -0.0259123 -5.81409e-010 -1.81037e-009 2.24879e-009 -2.22167 -0.733487 0.20892 -2.03217e-016 0 -3.88251e-019 16.4542 -40.516 19.3612 -0.323578 38.7049 0.735865 3.0901 -5.61501 16.2827 2.03217e-016 0 3.88251e-019 23.7506 -8.00447 6.89601 -0.117661 24.0891 -1.00204 9.62831 -14.5971 30.7288 
-42.1058 80.5409 15.8976 14.5114 0.966301 -52.0483 -15.5365 5.9699 -26.3454 5.37431 -1.50895 -7.52991 -1.48158 9.51427 21.3549 -16.8274 -9.36832 40.6802 -0 0 0 -0 0 0 -3.63619e-014 4.87421e-013 5.34847e-013 37.5439 -28.5234 44.1122 -26.6362 -44.9232 93.3053 -0.00795511 2.56023 0.36005 1.54432e-009 1.44526e-010 -3.56597e-009 2.67006e-009 2.46455e-010 -6.16708e-009 1.54432e-009 1.44526e-010 -3.566e-009 7.73091 5.47488 0.417314 1.54432e-009 1.44528e-010 -3.56597e-009 2.90554 0.965183 0.102902 1.54433e-009 1.44531e-010 -3.56597e-009 10.2786 0.731801 0.0259123 1.54432e-009 1.44532e-010 -3.56596e-009 2.22167 -0.733487 -0.20892 -3.64198e-014 4.8743e-013 5.3471e-013 -19.7463 -11.2808 -138.307 18.6708 -11.4263 -35.5433 0.000950078 -0.888176 0.124835 6.05942e-010 -2.7955e-009 3.20178e-009 1.04207e-009 -4.8414e-009 5.55075e-009 6.05936e-010 -2.79551e-009 3.20179e-009 -7.73091 5.47488 -0.417314 6.05942e-010 -2.7955e-009 3.20178e-009 -2.90554 0.965183 -0.102902 6.05933e-010 -2.7955e-009 3.20177e-009 -10.2786 0.731801 -0.0259123 6.05947e-010 -2.7955e-009 3.20176e-009 -2.22167 -0.733487 0.20892 -2.03217e-016 0 -3.88251e-019 16.3635 -40.4702 19.2667 -0.319186 38.4437 0.728232 3.07488 -5.50981 16.3605 2.03217e-016 0 3.88251e-019 23.9283 -8.31513 7.49762 -0.115315 24.3573 -0.997214 9.08925 -13.7353 30.4831 
